<svg width="25" height="25" viewBox="0 0 200 200" fill="none" xmlns="http://www.w3.org/2000/svg">
  <path d="M134.715 171.967C134.715 162.574 142.318 155.114 151.568 155.114C160.657 155.114 168.226 162.648 168.421 172.024C168.39 181.391 160.799 188.82 151.568 188.82C142.175 188.82 134.715 181.217 134.715 171.967Z" stroke="#FFFFFF" stroke-width="13" fill="none"/>
  <path d="M42.9716 37.974L43.7985 43.5145H49.4004H190.644C190.656 43.5167 190.67 43.5192 190.685 43.5219L190.727 43.5297C190.837 43.5501 191.081 43.595 191.298 43.6284C191.401 43.6444 191.547 43.6656 191.723 43.6852C192.966 44.0277 193.663 45.2373 193.465 46.3329L178.888 119.22C177.033 127.719 169.536 133.806 161 133.806H67.5887C58.7036 133.806 51.0913 127.202 49.7666 118.465C49.766 118.461 49.7654 118.457 49.7648 118.453L35.8466 23.7196L35.8223 23.5539L35.7894 23.3897C35.0978 19.9315 32.0562 16.1435 27.1702 16.1435H8.98188C7.63171 16.1435 6.5 15.0118 6.5 13.6616C6.5 12.3114 7.63171 11.1797 8.98188 11.1797H27.1702C34.0687 11.1797 39.8124 16.2323 40.7145 22.8481L40.72 22.8888L40.7261 22.9294L42.9716 37.974Z" stroke="#FFFFFF" stroke-width="13" fill="none"/>
  <path d="M87.813 171.081L87.8149 171.133L87.8177 171.186C88.2919 180.196 81.1868 188.023 71.8942 188.596H71.6295C62.8314 188.596 55.5476 181.539 55.2215 172.633C54.9023 163.477 61.9117 155.691 71.3472 155.115C80.154 155.204 87.4941 162.31 87.813 171.081Z" stroke="#FFFFFF" stroke-width="13" fill="none"/>
</svg>
